<svg xmlns="http://www.w3.org/2000/svg" width="64" height="64" viewBox="0 0 64 64" fill="none">
  <rect width="64" height="64" rx="16" fill="#0F172A"/>
  <path d="M20 32C20 24.268 26.268 18 34 18C41.732 18 48 24.268 48 32C48 39.732 41.732 46 34 46H24C21.791 46 20 44.209 20 42V32Z" fill="#38BDF8"/>
  <circle cx="28" cy="32" r="6" fill="#0F172A"/>
  <circle cx="40" cy="32" r="6" fill="#0F172A"/>
  <path d="M26 32C26 29.791 27.791 28 30 28H34C36.209 28 38 29.791 38 32C38 34.209 36.209 36 34 36H30C27.791 36 26 34.209 26 32Z" fill="#E2E8F0"/>
  <path d="M32 14V10" stroke="#38BDF8" stroke-width="3" stroke-linecap="round"/>
  <path d="M48 20L52 16" stroke="#38BDF8" stroke-width="3" stroke-linecap="round"/>
  <path d="M48 44L52 48" stroke="#38BDF8" stroke-width="3" stroke-linecap="round"/>
  <path d="M16 44L12 48" stroke="#38BDF8" stroke-width="3" stroke-linecap="round"/>
  <path d="M16 20L12 16" stroke="#38BDF8" stroke-width="3" stroke-linecap="round"/>
</svg>
